<?xml version="1.0" encoding="UTF-8"?>
<svg width="112" height="40" viewBox="0 0 112 40" fill="none" xmlns="http://www.w3.org/2000/svg">
    <path fill-rule="evenodd" clip-rule="evenodd"
          d="M13.2327 4.65347C10.2266 5.48225 7.48776 7.07524 5.28425 9.27649C1.91316 12.6309 0.0129236 17.1813 0 21.9305V22.0795C0.0138568 26.8268 1.91408 31.3749 5.28425 34.7275C6.9582 36.401 8.94722 37.7282 11.1371 38.6328C13.3269 39.5374 15.6744 40.0015 18.0446 39.9985C20.4147 40.0013 22.7619 39.5372 24.9516 38.6326C27.1413 37.728 29.1301 36.4009 30.804 34.7275C32.482 33.0582 33.8127 31.0747 34.7197 28.8909C35.6267 26.7072 36.0921 24.3662 36.0892 22.0025C36.0922 19.6386 35.6269 17.2975 34.7199 15.1135C33.8128 12.9296 32.4821 10.9459 30.804 9.27649C28.6002 7.07612 25.8619 5.48326 22.8565 4.65347L22.7212 4.61548V1.81549C22.7211 1.35087 22.5465 0.903138 22.2319 0.560486C22.0743 0.385508 21.8817 0.245384 21.6665 0.149109C21.4513 0.0528337 21.2184 0.00254921 20.9825 0.00149536H15.1077C14.872 0.0031445 14.6392 0.0539944 14.4243 0.150787C14.2095 0.24758 14.0174 0.388153 13.8603 0.563477C13.5451 0.905108 13.3698 1.35223 13.369 1.8165V4.61649L13.2336 4.65448L13.2327 4.65347ZM10.9997 8.97247C10.593 8.97521 10.1914 9.06255 9.82058 9.22888C9.44972 9.39522 9.11772 9.6369 8.84585 9.93848C8.46744 10.3504 8.20094 10.8519 8.07173 11.3955L8.02161 11.6015L7.82105 11.5235C7.3197 11.3235 6.82839 11.1135 6.34809 10.8735L6.12049 10.7605L6.44338 10.4345C8.30748 8.56418 10.6012 7.17599 13.1254 6.39047L13.365 6.31549V8.9715L10.9997 8.97247ZM22.7212 7.19247C22.1812 7.03032 21.633 6.8968 21.0788 6.79248V8.97748H15.0114V1.64148H21.0788V4.26248L20.8652 4.22949C19.9322 4.08298 18.9891 4.00976 18.0446 4.0105C17.3171 4.01022 16.5901 4.05361 15.8678 4.14047V5.7905C16.5894 5.69519 17.3167 5.64776 18.0446 5.6485C19.0103 5.65076 19.974 5.73505 20.9254 5.90048L21.7696 6.07248L22.4314 6.24149L22.9599 6.39548C25.4867 7.17677 27.7822 8.56592 29.6439 10.4405L29.9657 10.7655L29.7371 10.8785C29.2568 11.1185 28.7645 11.3335 28.2631 11.5285L28.0626 11.6065L28.0125 11.4065C27.8799 10.8639 27.6138 10.3628 27.2384 9.94849C26.9668 9.64581 26.6344 9.40341 26.2629 9.237C25.8913 9.07059 25.4889 8.98388 25.0816 8.98248H22.7162V7.20248L22.7212 7.19247ZM28.23 13.2795C29.1507 12.9533 30.0465 12.5609 30.9103 12.1055L31.0496 12.0315L31.1439 12.1575C33.083 14.7166 34.2212 17.7897 34.4157 20.9915L34.4267 21.1915H28.1097V13.3295L28.232 13.2855L28.23 13.2795ZM28.1077 22.8185H34.4307L34.4197 23.0125C34.2252 26.2147 33.0866 29.2883 31.1469 31.8475L31.0466 31.9735L30.9073 31.8985C30.0442 31.4425 29.1491 31.0494 28.229 30.7225L28.1067 30.6785V22.8175L28.1077 22.8185ZM9.62192 14.7965C9.07044 14.6465 8.51895 14.4785 7.9795 14.2905V21.1905H1.6625L1.67351 20.9905C1.86943 17.7887 3.00826 14.7157 4.94735 12.1565L5.04759 12.0305L5.18701 12.1065C6.04687 12.5657 6.94091 12.9582 7.8612 13.2805L8.39162 13.4635L9.1557 13.7035L9.85754 13.9035C10.0982 13.9675 10.3389 14.0295 10.5815 14.0865C13.0291 14.6544 15.5347 14.9363 18.0476 14.9265C20.5595 14.9364 23.0641 14.6549 25.5107 14.0875L25.611 14.0615V12.3715L25.1347 12.4935C22.8112 13.0312 20.4329 13.2977 18.0476 13.2875C15.6617 13.2978 13.2827 13.0314 10.9585 12.4935C10.5575 12.3988 10.1604 12.2945 9.76734 12.1805L9.61795 12.1385L9.63496 11.9845C9.67105 11.636 9.81712 11.3079 10.0521 11.0475C10.1716 10.9135 10.3176 10.8057 10.4811 10.731C10.6446 10.6563 10.8218 10.6163 11.0016 10.6135H25.0856C25.2656 10.6164 25.4432 10.6564 25.6069 10.7311C25.7707 10.8058 25.9172 10.9135 26.0372 11.0475C26.3168 11.3565 26.4697 11.7592 26.4653 12.1755V30.1675L26.2337 30.1055C25.993 30.0388 25.7517 29.9782 25.5097 29.9235C23.0627 29.3567 20.5578 29.0751 18.0456 29.0845C15.5327 29.0752 13.0273 29.3567 10.5795 29.9235L10.4712 29.9495V31.6395L10.9585 31.5155C13.2824 30.9781 15.661 30.7117 18.0466 30.7215C20.4311 30.7133 22.8085 30.9797 25.1317 31.5155C25.5328 31.6095 25.9339 31.7155 26.3249 31.8275L27.5021 32.2005L28.1809 32.4495L28.2631 32.4815C28.7645 32.6745 29.2568 32.8935 29.7381 33.1325L29.9667 33.2465L29.6439 33.5705C28.1238 35.0937 26.3162 36.3015 24.3255 37.1242C22.3348 37.9469 20.2004 38.3681 18.0456 38.3635C15.8904 38.3705 13.7553 37.9504 11.7643 37.1276C9.77325 36.3048 7.96592 35.0957 6.44736 33.5705L6.12551 33.2455L6.35311 33.1315C6.8334 32.8935 7.32673 32.6775 7.82607 32.4825L8.02662 32.4045L8.07675 32.6045C8.21197 33.1456 8.4773 33.6457 8.84982 34.0615C9.12166 34.3631 9.45368 34.6048 9.82456 34.7712C10.1954 34.9375 10.597 35.0248 11.0036 35.0275H25.0856C25.4927 35.0251 25.8948 34.938 26.2662 34.7716C26.6376 34.6053 26.9701 34.3634 27.2424 34.0615C27.466 33.8185 27.6513 33.543 27.7919 33.2445C27.2725 33.0515 26.744 32.8815 26.2116 32.7275C26.1607 32.8082 26.1027 32.8842 26.0381 32.9545C25.9181 33.0886 25.7714 33.1964 25.6075 33.2711C25.4435 33.3458 25.2658 33.3858 25.0856 33.3885H10.9997C10.8199 33.3858 10.6426 33.3458 10.4791 33.2711C10.3156 33.1964 10.1695 33.0886 10.0501 32.9545C9.77166 32.6444 9.61931 32.2417 9.6229 31.8255V23.7905H7.9795V30.6815L7.85716 30.7255C6.93704 31.0519 6.04198 31.4446 5.17899 31.9005L5.03957 31.9745L4.94533 31.8485C3.00569 29.2899 1.86678 26.2171 1.67149 23.0155L1.66048 22.8155H12.1708V23.8545C12.1708 23.9045 12.237 23.9305 12.2791 23.9305H12.6621C12.7022 23.9305 12.7624 23.9115 12.7704 23.8685L13.1655 22.4915L17.6345 22.7515L16.7722 27.8765C16.7722 27.9275 16.8384 27.9465 16.8815 27.9465H17.3317C17.3514 27.9467 17.3708 27.942 17.3883 27.933C17.4058 27.9239 17.4208 27.9107 17.432 27.8945L20.1683 22.7605H23.2767C23.4961 22.779 23.717 22.7486 23.9232 22.6715C24.1294 22.5943 24.3158 22.4724 24.4689 22.3145C24.5339 22.2237 24.5689 22.115 24.5692 22.0035C24.5674 21.8931 24.5325 21.7859 24.4689 21.6955V21.6895C24.3162 21.5317 24.1301 21.4098 23.9242 21.3326C23.7184 21.2555 23.4978 21.225 23.2787 21.2435H20.1704L17.437 16.1135C17.4264 16.0949 17.4108 16.0797 17.3921 16.0694C17.3733 16.0592 17.352 16.0544 17.3307 16.0555H16.8915H16.8584C16.8193 16.0555 16.7582 16.0915 16.7702 16.1395L17.6325 21.2485L13.1634 21.5085L12.7694 20.1345C12.7594 20.0885 12.7012 20.0665 12.6591 20.0665H12.2761C12.234 20.0665 12.1658 20.0925 12.1658 20.1445V21.1825H9.61293V14.7935L9.62192 14.7965Z"
          fill="#40C7E0"/>
    <path
        d="M89.3346 27.0595C89.3371 27.1356 89.3685 27.2079 89.4225 27.2618C89.4765 27.3156 89.549 27.347 89.6253 27.3495H91.0511C91.1276 27.3472 91.2005 27.316 91.2547 27.2621C91.3089 27.2082 91.3404 27.1358 91.3429 27.0595V16.9315C91.3407 16.855 91.3093 16.7823 91.2551 16.7282C91.2008 16.6741 91.1278 16.6427 91.0511 16.6405H89.6253C89.5488 16.643 89.4761 16.6745 89.4221 16.7285C89.3681 16.7826 89.3369 16.8552 89.3346 16.9315V27.0595ZM53.8209 27.0595C53.8234 27.1356 53.8549 27.2079 53.9089 27.2618C53.9629 27.3156 54.0354 27.347 54.1117 27.3495H55.5385C55.6148 27.347 55.6874 27.3156 55.7414 27.2618C55.7954 27.2079 55.8268 27.1356 55.8293 27.0595V16.9315C55.8271 16.8552 55.7957 16.7826 55.7417 16.7285C55.6877 16.6745 55.615 16.643 55.5385 16.6405H54.1117C54.0352 16.643 53.9625 16.6745 53.9085 16.7285C53.8545 16.7826 53.8231 16.8552 53.8209 16.9315V27.0595ZM104.599 23.6935L106.103 20.3265H106.149L107.683 23.6935H104.599ZM101.316 27.3495H102.649C102.746 27.3514 102.842 27.3229 102.921 27.268C103.001 27.2131 103.062 27.1345 103.095 27.0435L103.847 25.3915H108.434L109.186 27.0435C109.216 27.1364 109.275 27.217 109.356 27.2724C109.436 27.3278 109.533 27.3549 109.63 27.3495H110.965C111.014 27.354 111.063 27.3451 111.108 27.3238C111.152 27.3024 111.19 27.2693 111.217 27.2282C111.244 27.187 111.259 27.1393 111.26 27.0902C111.262 27.0411 111.251 26.9924 111.227 26.9495L106.501 16.6495C106.481 16.5971 106.445 16.5524 106.399 16.522C106.352 16.4915 106.296 16.477 106.24 16.4805H106.087C106.031 16.4791 105.977 16.4945 105.93 16.5246C105.884 16.5548 105.847 16.5983 105.826 16.6495L101.055 26.9495C101.031 26.9924 101.019 27.0411 101.021 27.0902C101.023 27.1393 101.038 27.187 101.065 27.2282C101.092 27.2693 101.13 27.3024 101.174 27.3238C101.218 27.3451 101.268 27.354 101.317 27.3495H101.316ZM93.584 26.3095C94.5188 27.1152 95.723 27.5414 96.958 27.5035C97.3906 27.5427 97.8268 27.4948 98.2404 27.3626C98.6541 27.2304 99.0369 27.0166 99.366 26.7339C99.6952 26.4513 99.964 26.1055 100.156 25.7172C100.349 25.3289 100.461 24.9059 100.487 24.4735C100.487 22.4995 98.768 21.6125 97.278 21.0155C96.0356 20.5155 95.4671 20.0215 95.4671 19.3015C95.5043 18.9813 95.6672 18.6889 95.9202 18.4884C96.1732 18.2878 96.4955 18.1954 96.8167 18.2315C97.5825 18.3452 98.3119 18.6329 98.9485 19.0725C98.9958 19.0957 99.0473 19.1094 99.0999 19.1128C99.1526 19.1162 99.2053 19.1092 99.2552 19.0922C99.3052 19.0752 99.3513 19.0485 99.3909 19.0137C99.4304 18.9789 99.4628 18.9367 99.486 18.8895L100.068 18.0175C100.118 17.9377 100.136 17.8423 100.119 17.75C100.103 17.6576 100.052 17.5747 99.9773 17.5175C99.0837 16.8708 98.0128 16.5128 96.909 16.4915C94.4694 16.4915 93.4576 18.0675 93.4576 19.4295C93.4576 21.2345 94.8995 22.1525 96.3414 22.7295C97.6309 23.2495 98.2896 23.7854 98.2896 24.5654C98.277 24.7348 98.2307 24.9001 98.1534 25.0514C98.0761 25.2027 97.9692 25.3371 97.8392 25.4468C97.7092 25.5565 97.5585 25.6392 97.396 25.6901C97.2335 25.7411 97.0625 25.7592 96.8929 25.7435C96.0537 25.6251 95.2573 25.2992 94.5766 24.7955C94.5364 24.7653 94.4903 24.744 94.4411 24.733C94.392 24.722 94.3411 24.7215 94.2918 24.7316C94.2425 24.7417 94.1959 24.7622 94.1551 24.7917C94.1143 24.8211 94.0803 24.8589 94.0553 24.9025L93.5028 25.8505C93.3644 26.0955 93.4407 26.1725 93.58 26.3095H93.584ZM82.5071 27.3345C82.5286 27.3854 82.5651 27.4288 82.6115 27.4589C82.658 27.4891 82.7124 27.5046 82.7678 27.5035H82.9223C82.9778 27.5047 83.0324 27.4892 83.0789 27.4591C83.1254 27.4289 83.1617 27.3855 83.183 27.3345L87.9388 17.0345C87.9623 16.9916 87.9738 16.9431 87.9719 16.8942C87.9701 16.8453 87.9548 16.7979 87.9281 16.7569C87.9014 16.7158 87.8641 16.6828 87.82 16.6613C87.776 16.6397 87.727 16.6304 87.6782 16.6345H86.1159C86.0606 16.6341 86.0065 16.65 85.9602 16.68C85.9138 16.71 85.8773 16.753 85.8551 16.8035L82.9092 23.3815H82.803L79.8571 16.8035C79.835 16.7529 79.7985 16.7099 79.7522 16.6799C79.7058 16.6498 79.6516 16.634 79.5963 16.6345H78.0311C77.9821 16.6301 77.9328 16.6391 77.8886 16.6606C77.8444 16.6821 77.807 16.7151 77.7802 16.7562C77.7534 16.7974 77.7383 16.845 77.7366 16.894C77.7349 16.943 77.7465 16.9916 77.7704 17.0345L82.5102 27.3345H82.5071ZM69.1151 26.9825C69.1144 27.0309 69.1235 27.0789 69.1418 27.1237C69.16 27.1685 69.187 27.2092 69.2214 27.2435C69.2557 27.2777 69.2965 27.3047 69.3414 27.3229C69.3864 27.3411 69.4347 27.3501 69.4832 27.3495H70.8327C70.9299 27.3482 71.0228 27.3091 71.0915 27.2405C71.1602 27.172 71.1994 27.0794 71.2007 26.9825V22.3165L75.2055 27.2425C75.2402 27.2801 75.2831 27.3093 75.3309 27.3277C75.3788 27.346 75.4302 27.3532 75.4813 27.3485H77.1537C77.2165 27.3496 77.2785 27.3332 77.3324 27.3011C77.3864 27.269 77.4302 27.2224 77.4589 27.1667C77.4876 27.111 77.5 27.0483 77.4949 26.9859C77.4897 26.9235 77.467 26.8637 77.4295 26.8135L73.134 21.6875L77.1377 17.1875C77.1829 17.141 77.2131 17.0821 77.2245 17.0183C77.2359 16.9546 77.228 16.8889 77.2017 16.8297C77.1754 16.7705 77.132 16.7205 77.077 16.6861C77.022 16.6516 76.9579 16.6344 76.893 16.6365H75.3579C75.3007 16.6377 75.2447 16.6523 75.1942 16.679C75.1437 16.7057 75.1002 16.7439 75.0672 16.7905L71.2007 21.1355V17.0045C71.1994 16.9075 71.1602 16.8149 71.0915 16.7464C71.0228 16.6778 70.9299 16.6388 70.8327 16.6375H69.4832C69.4347 16.6369 69.3866 16.646 69.3417 16.6643C69.2968 16.6826 69.256 16.7096 69.2217 16.7438C69.1874 16.778 69.1603 16.8186 69.142 16.8634C69.1237 16.9082 69.1146 16.9561 69.1151 17.0045V26.9795V26.9825ZM57.8388 22.0105C57.8377 22.7346 57.9804 23.4519 58.2587 24.1207C58.537 24.7896 58.9453 25.3969 59.4602 25.9076C59.9751 26.4183 60.5862 26.8222 61.2584 27.0962C61.9306 27.3701 62.6505 27.5085 63.3766 27.5035C64.767 27.5192 66.1072 26.9857 67.1047 26.0195C67.1331 25.9935 67.1561 25.9622 67.1723 25.9273C67.1884 25.8924 67.1976 25.8547 67.1991 25.8163C67.2006 25.7779 67.1944 25.7396 67.1809 25.7036C67.1675 25.6676 67.147 25.6346 67.1207 25.6065L66.1692 24.6265C66.1168 24.5785 66.0483 24.5518 65.9771 24.5518C65.906 24.5518 65.8375 24.5785 65.7851 24.6265C65.1291 25.1821 64.2985 25.4907 63.4378 25.4985C62.9789 25.4937 62.5254 25.3982 62.1037 25.2176C61.6819 25.037 61.3003 24.7747 60.9808 24.4461C60.6612 24.1175 60.4102 23.729 60.2421 23.303C60.074 22.8771 59.9923 22.4221 60.0016 21.9645C59.9888 21.5057 60.0674 21.0489 60.2329 20.6206C60.3984 20.1923 60.6475 19.801 60.9657 19.4694C61.2839 19.1379 61.6649 18.8725 62.0867 18.6889C62.5084 18.5052 62.9626 18.4068 63.4228 18.3995C64.2929 18.4076 65.1311 18.727 65.7851 19.2995C65.8081 19.3282 65.8374 19.3514 65.8707 19.3674C65.9039 19.3833 65.9402 19.3917 65.9771 19.3917C66.014 19.3917 66.0505 19.3833 66.0838 19.3674C66.117 19.3514 66.1462 19.3282 66.1692 19.2995L67.1047 18.3355C67.1344 18.3078 67.1578 18.274 67.1734 18.2365C67.1889 18.199 67.1962 18.1586 67.1948 18.1181C67.1933 18.0775 67.1833 18.0377 67.1652 18.0014C67.147 17.9651 67.1212 17.933 67.0896 17.9075C66.5954 17.4387 66.0132 17.0718 65.3766 16.8276C64.7401 16.5835 64.0615 16.4668 63.3797 16.4845C62.652 16.4829 61.9311 16.6247 61.2585 16.9017C60.5859 17.1787 59.9748 17.5854 59.4602 18.0986C58.9456 18.6118 58.5378 19.2213 58.2601 19.892C57.9823 20.5628 57.8401 21.2817 57.8417 22.0075L57.8388 22.0105ZM46.7328 21.5975V18.5225H48.5116C48.7133 18.5158 48.9142 18.549 49.1029 18.62C49.2916 18.6911 49.4644 18.7987 49.6113 18.9366C49.7582 19.0746 49.8762 19.2401 49.9587 19.4237C50.0412 19.6073 50.0864 19.8053 50.0919 20.0065C50.0937 20.2146 50.0542 20.4212 49.9757 20.614C49.8971 20.8069 49.781 20.9824 49.6341 21.1303C49.4872 21.2782 49.3123 21.3956 49.1197 21.4758C48.927 21.556 48.7204 21.5973 48.5116 21.5975H46.7328ZM44.7374 27.0595C44.7377 27.1365 44.7686 27.2102 44.8232 27.2646C44.8779 27.3189 44.952 27.3495 45.0292 27.3495H46.44C46.5165 27.3472 46.5893 27.316 46.6435 27.2621C46.6977 27.2082 46.7293 27.1358 46.7318 27.0595V23.4595H48.649C49.5592 23.4518 50.4295 23.0858 51.0703 22.4411C51.7111 21.7964 52.0705 20.9253 52.0702 20.0175C52.0594 19.1161 51.6924 18.2553 51.0491 17.6221C50.4057 16.9889 49.5378 16.6343 48.6339 16.6355H45.0242C44.9468 16.6355 44.8726 16.6661 44.8179 16.7207C44.7632 16.7753 44.7324 16.8493 44.7324 16.9265V27.0545L44.7374 27.0595Z"
        fill="white"/>
</svg>
